<?xml version="1.0" standalone="no"?>
<!DOCTYPE svg PUBLIC "-//W3C//DTD SVG 20010904//EN"
 "http://www.w3.org/TR/2001/REC-SVG-20010904/DTD/svg10.dtd">
<svg version="1.0" xmlns="http://www.w3.org/2000/svg"
 width="700.000000pt" height="700.000000pt" viewBox="0 0 700.000000 700.000000"
 preserveAspectRatio="xMidYMid meet">
<metadata>
Created by potrace 1.14, written by Peter Selinger 2001-2017
</metadata>
<g transform="translate(0.000000,700.000000) scale(0.100000,-0.100000)"
fill="#000000" stroke="none">
<path d="M3489 6456 c-2 -2 -67 -6 -144 -9 -77 -4 -156 -9 -175 -11 -19 -3
-55 -8 -80 -11 -219 -28 -564 -122 -745 -205 -115 -52 -234 -111 -300 -148
-83 -47 -296 -186 -337 -220 -12 -11 -63 -53 -113 -95 -344 -285 -630 -671
-810 -1092 -67 -157 -146 -403 -171 -530 -2 -11 -6 -31 -9 -45 -3 -14 -8 -42
-11 -64 -3 -21 -8 -48 -10 -60 -4 -21 -20 -151 -29 -236 -6 -56 -7 -428 -1
-455 2 -11 7 -49 10 -85 6 -59 14 -120 21 -160 1 -8 6 -35 10 -60 22 -139 136
-537 165 -575 4 -5 11 -21 15 -35 9 -30 113 -245 152 -315 69 -121 193 -305
258 -381 6 -7 26 -32 45 -55 339 -418 862 -768 1385 -927 147 -45 205 -60 255
-67 24 -4 47 -8 50 -10 9 -6 185 -33 265 -41 39 -4 84 -8 100 -10 44 -5 393
-4 445 1 116 11 241 28 305 40 39 8 81 16 95 19 154 26 456 130 648 222 520
249 933 625 1257 1143 48 78 150 282 195 391 38 94 107 291 115 330 2 8 10 42
18 75 33 124 62 293 73 415 3 41 8 84 10 95 6 29 5 368 -1 445 -3 36 -10 100
-15 142 -6 43 -13 90 -15 105 -42 313 -196 741 -365 1018 -22 36 -40 69 -40
74 0 4 -8 15 -17 24 -10 9 -27 32 -37 51 l-19 36 27 60 c114 253 28 538 -207
691 -150 97 -358 110 -519 31 l-58 -29 -42 29 c-216 146 -509 285 -773 365
-94 28 -308 78 -380 88 -153 21 -272 32 -369 34 -60 1 -113 4 -116 6 -4 3 -9
3 -11 1z"/>
</g>
</svg>
